<mxfile host="app.diagrams.net" modified="2024-07-02T14:24:41.806Z" agent="Mozilla/5.0 (Macintosh; Intel Mac OS X 10_15_7) AppleWebKit/537.36 (KHTML, like Gecko) Chrome/126.0.0.0 Safari/537.36" etag="S5pbYjVHz15rtCYFuF0P" version="24.6.4" type="github">
  <diagram name="第 1 页" id="u3UiKBlG_0auIqvH11PU">
    <mxGraphModel dx="1281" dy="293" grid="1" gridSize="10" guides="1" tooltips="1" connect="1" arrows="1" fold="1" page="1" pageScale="1" pageWidth="827" pageHeight="1169" math="0" shadow="0">
      <root>
        <mxCell id="0" />
        <mxCell id="1" parent="0" />
        <mxCell id="f7w1oG7Y8Yp_idJ4OMdf-2" value="&lt;b&gt;方法的调用机制分析&lt;/b&gt;" style="rounded=0;whiteSpace=wrap;html=1;fillColor=#fff2cc;strokeColor=#d6b656;verticalAlign=top;align=left;" vertex="1" parent="1">
          <mxGeometry x="370" y="90" width="880" height="450" as="geometry" />
        </mxCell>
        <mxCell id="f7w1oG7Y8Yp_idJ4OMdf-3" value="栈&lt;br&gt;&lt;br&gt;&lt;br&gt;&lt;br&gt;&lt;br&gt;&lt;br&gt;&lt;br&gt;&lt;br&gt;&lt;div&gt;&lt;br/&gt;&lt;/div&gt;" style="rounded=0;whiteSpace=wrap;html=1;fillColor=#dae8fc;strokeColor=#6c8ebf;verticalAlign=top;align=left;" vertex="1" parent="1">
          <mxGeometry x="390" y="150" width="400" height="360" as="geometry" />
        </mxCell>
        <mxCell id="f7w1oG7Y8Yp_idJ4OMdf-4" value="" style="rounded=0;whiteSpace=wrap;html=1;fillColor=#dae8fc;strokeColor=#6c8ebf;" vertex="1" parent="1">
          <mxGeometry x="850" y="100" width="380" height="200" as="geometry" />
        </mxCell>
        <mxCell id="f7w1oG7Y8Yp_idJ4OMdf-5" value="" style="rounded=0;whiteSpace=wrap;html=1;fillColor=#f8cecc;strokeColor=#b85450;" vertex="1" parent="1">
          <mxGeometry x="850" y="340" width="380" height="170" as="geometry" />
        </mxCell>
        <mxCell id="f7w1oG7Y8Yp_idJ4OMdf-6" value="堆" style="text;html=1;align=center;verticalAlign=middle;resizable=0;points=[];autosize=1;strokeColor=none;fillColor=none;" vertex="1" parent="1">
          <mxGeometry x="860" y="110" width="40" height="30" as="geometry" />
        </mxCell>
        <mxCell id="f7w1oG7Y8Yp_idJ4OMdf-8" value="方法区" style="text;html=1;align=center;verticalAlign=middle;resizable=0;points=[];autosize=1;strokeColor=none;fillColor=none;" vertex="1" parent="1">
          <mxGeometry x="850" y="340" width="60" height="30" as="geometry" />
        </mxCell>
        <mxCell id="f7w1oG7Y8Yp_idJ4OMdf-19" style="edgeStyle=orthogonalEdgeStyle;rounded=0;orthogonalLoop=1;jettySize=auto;html=1;entryX=0;entryY=0.25;entryDx=0;entryDy=0;curved=1;strokeWidth=2;" edge="1" parent="1" source="f7w1oG7Y8Yp_idJ4OMdf-13" target="f7w1oG7Y8Yp_idJ4OMdf-18">
          <mxGeometry relative="1" as="geometry" />
        </mxCell>
        <mxCell id="f7w1oG7Y8Yp_idJ4OMdf-13" value="&lt;span style=&quot;text-wrap: nowrap;&quot;&gt;main栈&lt;/span&gt;&lt;div&gt;&lt;br&gt;&lt;/div&gt;" style="rounded=0;whiteSpace=wrap;html=1;fillColor=#d5e8d4;strokeColor=#82b366;verticalAlign=top;align=left;" vertex="1" parent="1">
          <mxGeometry x="400" y="360" width="240" height="140" as="geometry" />
        </mxCell>
        <UserObject label="&lt;div style=&quot;background-color:#1e1f22;color:#bcbec4&quot;&gt;&lt;pre style=&quot;font-family:&#39;JetBrains Mono&#39;,monospace;font-size:9.8pt;&quot;&gt;Person p1 = &lt;span style=&quot;color:#cf8e6d;&quot;&gt;new &lt;/span&gt;Person();&lt;br&gt;&lt;span style=&quot;color:#cf8e6d;&quot;&gt;int &lt;/span&gt;returnRes = p1.getSum(&lt;span style=&quot;color:#2aacb8;&quot;&gt;1&lt;/span&gt;, &lt;span style=&quot;color:#2aacb8;&quot;&gt;2&lt;/span&gt;); &lt;span style=&quot;color:#7a7e85;&quot;&gt;// &lt;/span&gt;&lt;span style=&quot;color:#7a7e85;font-family:&#39;Menlo-Regular&#39;,monospace;&quot;&gt;调用&lt;/span&gt;&lt;span style=&quot;color:#7a7e85;&quot;&gt;getSum&lt;/span&gt;&lt;span style=&quot;color:#7a7e85;font-family:&#39;Menlo-Regular&#39;,monospace;&quot;&gt;方法&lt;br&gt;&lt;/span&gt;System.out.println(&lt;span style=&quot;color:#6aab73;&quot;&gt;&quot;getSum &lt;/span&gt;&lt;span style=&quot;color:#6aab73;font-family:&#39;Menlo-Regular&#39;,monospace;&quot;&gt;计算结果&lt;/span&gt;&lt;span style=&quot;color:#6aab73;&quot;&gt;=&quot; &lt;/span&gt;+ returnRes);&lt;/pre&gt;&lt;/div&gt;" link="&lt;div style=&quot;background-color:#1e1f22;color:#bcbec4&quot;&gt;&lt;pre style=&quot;font-family:&#39;JetBrains Mono&#39;,monospace;font-size:9.8pt;&quot;&gt;Person p1 = &lt;span style=&quot;color:#cf8e6d;&quot;&gt;new &lt;/span&gt;Person();&lt;br&gt;&lt;span style=&quot;color:#cf8e6d;&quot;&gt;int &lt;/span&gt;returnRes = p1.getSum(&lt;span style=&quot;color:#2aacb8;&quot;&gt;1&lt;/span&gt;, &lt;span style=&quot;color:#2aacb8;&quot;&gt;2&lt;/span&gt;); &lt;span style=&quot;color:#7a7e85;&quot;&gt;// &lt;/span&gt;&lt;span style=&quot;color:#7a7e85;font-family:&#39;Menlo-Regular&#39;,monospace;&quot;&gt;调用&lt;/span&gt;&lt;span style=&quot;color:#7a7e85;&quot;&gt;getSum&lt;/span&gt;&lt;span style=&quot;color:#7a7e85;font-family:&#39;Menlo-Regular&#39;,monospace;&quot;&gt;方法&lt;br&gt;&lt;/span&gt;System.out.println(&lt;span style=&quot;color:#6aab73;&quot;&gt;&quot;getSum &lt;/span&gt;&lt;span style=&quot;color:#6aab73;font-family:&#39;Menlo-Regular&#39;,monospace;&quot;&gt;计算结果&lt;/span&gt;&lt;span style=&quot;color:#6aab73;&quot;&gt;=&quot; &lt;/span&gt;+ returnRes);&lt;/pre&gt;&lt;/div&gt;" id="f7w1oG7Y8Yp_idJ4OMdf-16">
          <mxCell style="text;whiteSpace=wrap;html=1;" vertex="1" parent="1">
            <mxGeometry x="-70" y="180" width="420" height="100" as="geometry" />
          </mxCell>
        </UserObject>
        <mxCell id="f7w1oG7Y8Yp_idJ4OMdf-17" value="&lt;div style=&quot;background-color:#1e1f22;color:#bcbec4&quot;&gt;&lt;pre style=&quot;font-family:&#39;JetBrains Mono&#39;,monospace;font-size:9.8pt;&quot;&gt;&lt;span style=&quot;color:#cf8e6d;&quot;&gt;public int &lt;/span&gt;getSum(&lt;span style=&quot;color:#cf8e6d;&quot;&gt;int &lt;/span&gt;n, &lt;span style=&quot;color:#cf8e6d;&quot;&gt;int &lt;/span&gt;m) {&lt;br&gt;    &lt;span style=&quot;color:#cf8e6d;&quot;&gt;int &lt;/span&gt;res = n + m;&lt;br&gt;    &lt;span style=&quot;color:#cf8e6d;&quot;&gt;return &lt;/span&gt;res;&lt;br&gt;}&lt;/pre&gt;&lt;/div&gt;" style="text;whiteSpace=wrap;html=1;" vertex="1" parent="1">
          <mxGeometry x="-70" y="260" width="290" height="110" as="geometry" />
        </mxCell>
        <mxCell id="f7w1oG7Y8Yp_idJ4OMdf-18" value="对象" style="rounded=0;whiteSpace=wrap;html=1;fillColor=#f8cecc;strokeColor=#b85450;verticalAlign=top;align=left;" vertex="1" parent="1">
          <mxGeometry x="870" y="150" width="130" height="100" as="geometry" />
        </mxCell>
        <mxCell id="f7w1oG7Y8Yp_idJ4OMdf-21" value="&lt;div style=&quot;text-align: left;&quot;&gt;&lt;span style=&quot;text-wrap: nowrap;&quot;&gt;Person p1 = new Person();&lt;/span&gt;&lt;/div&gt;" style="rounded=0;whiteSpace=wrap;html=1;fillColor=#dae8fc;strokeColor=#6c8ebf;" vertex="1" parent="1">
          <mxGeometry x="410" y="385" width="190" height="30" as="geometry" />
        </mxCell>
        <mxCell id="f7w1oG7Y8Yp_idJ4OMdf-22" value="&lt;span style=&quot;text-align: left;&quot;&gt;int returnRes = p1.getSum(1, 2);&amp;nbsp;&lt;/span&gt;" style="rounded=0;whiteSpace=wrap;html=1;fillColor=#dae8fc;strokeColor=#6c8ebf;" vertex="1" parent="1">
          <mxGeometry x="410" y="424" width="190" height="30" as="geometry" />
        </mxCell>
        <mxCell id="f7w1oG7Y8Yp_idJ4OMdf-23" value="&lt;span style=&quot;text-wrap: nowrap;&quot;&gt;getSum栈（独立空间）实际没有栈名&lt;/span&gt;&lt;br&gt;&lt;div&gt;&lt;br&gt;&lt;/div&gt;&lt;div&gt;num1 -&amp;gt; 10&lt;/div&gt;&lt;div&gt;num2 -&amp;gt; 20&lt;/div&gt;&lt;div&gt;res -&amp;gt; 30&lt;/div&gt;" style="rounded=0;whiteSpace=wrap;html=1;fillColor=#fff2cc;strokeColor=#d6b656;verticalAlign=top;align=left;" vertex="1" parent="1">
          <mxGeometry x="400" y="200" width="240" height="130" as="geometry" />
        </mxCell>
        <mxCell id="f7w1oG7Y8Yp_idJ4OMdf-24" style="edgeStyle=orthogonalEdgeStyle;rounded=0;orthogonalLoop=1;jettySize=auto;html=1;entryX=-0.001;entryY=0.436;entryDx=0;entryDy=0;entryPerimeter=0;exitX=0;exitY=0.5;exitDx=0;exitDy=0;curved=1;strokeWidth=2;" edge="1" parent="1" source="f7w1oG7Y8Yp_idJ4OMdf-22" target="f7w1oG7Y8Yp_idJ4OMdf-23">
          <mxGeometry relative="1" as="geometry">
            <Array as="points">
              <mxPoint x="380" y="440" />
              <mxPoint x="380" y="257" />
            </Array>
          </mxGeometry>
        </mxCell>
        <mxCell id="f7w1oG7Y8Yp_idJ4OMdf-26" style="edgeStyle=orthogonalEdgeStyle;rounded=0;orthogonalLoop=1;jettySize=auto;html=1;entryX=1;entryY=0.5;entryDx=0;entryDy=0;curved=1;strokeWidth=2;" edge="1" parent="1" source="f7w1oG7Y8Yp_idJ4OMdf-25" target="f7w1oG7Y8Yp_idJ4OMdf-22">
          <mxGeometry relative="1" as="geometry" />
        </mxCell>
        <mxCell id="f7w1oG7Y8Yp_idJ4OMdf-25" value="&lt;span style=&quot;text-align: left;&quot;&gt;return res;&lt;/span&gt;" style="rounded=0;whiteSpace=wrap;html=1;fillColor=#dae8fc;strokeColor=#6c8ebf;" vertex="1" parent="1">
          <mxGeometry x="410" y="290" width="190" height="30" as="geometry" />
        </mxCell>
        <mxCell id="f7w1oG7Y8Yp_idJ4OMdf-27" value="&lt;div style=&quot;text-align: left;&quot;&gt;&lt;span style=&quot;background-color: initial;&quot;&gt;System.out.println(&quot;getSum 计算结果=&quot; + returnRes);&lt;/span&gt;&lt;/div&gt;" style="rounded=0;whiteSpace=wrap;html=1;fillColor=#dae8fc;strokeColor=#6c8ebf;" vertex="1" parent="1">
          <mxGeometry x="410" y="463" width="190" height="30" as="geometry" />
        </mxCell>
        <mxCell id="f7w1oG7Y8Yp_idJ4OMdf-28" value="方法调用小结&lt;div&gt;1.当程序执行到方法时，就会开辟一个独立的空间（栈空间）&lt;/div&gt;&lt;div&gt;2.当方法执行完毕，或者执行到return语句，就会返回到调用方法的地方&lt;/div&gt;&lt;div&gt;3.返回后，继续执行方法后面的代码&lt;/div&gt;&lt;div&gt;4.当main方法（栈）执行完毕，整个程序退出&lt;/div&gt;&lt;div&gt;&lt;br&gt;&lt;/div&gt;" style="rounded=0;whiteSpace=wrap;html=1;fillColor=#dae8fc;strokeColor=#6c8ebf;align=left;verticalAlign=top;" vertex="1" parent="1">
          <mxGeometry x="-70" y="360" width="380" height="200" as="geometry" />
        </mxCell>
      </root>
    </mxGraphModel>
  </diagram>
</mxfile>
